<?xml version="1.0" standalone="no"?>
<!DOCTYPE svg PUBLIC "-//W3C//DTD SVG 20010904//EN"
 "http://www.w3.org/TR/2001/REC-SVG-20010904/DTD/svg10.dtd">
<svg version="1.0" xmlns="http://www.w3.org/2000/svg"
 width="1000.000000pt" height="1600.000000pt" viewBox="0 0 1000.000000 1600.000000"
 preserveAspectRatio="xMidYMid meet">

<g transform="translate(0.000000,1600.000000) scale(0.100000,-0.100000)"
fill="#000000" stroke="none">
<path d="M6880 14994 c-187 -35 -298 -76 -427 -159 -79 -51 -406 -374 -3160
-3128 -3337 -3338 -3135 -3130 -3214 -3319 -56 -135 -73 -227 -73 -388 0 -161
17 -253 73 -388 79 -189 -123 19 3214 -3319 3338 -3337 3130 -3135 3319 -3214
137 -57 226 -73 393 -73 129 1 164 4 249 27 354 95 618 361 718 725 18 63 21
105 21 237 0 140 -3 172 -25 256 -29 106 -76 211 -139 309 -31 48 -728 752
-2728 2753 l-2686 2687 2686 2688 c2392 2393 2692 2696 2738 2770 63 100 105
197 134 312 30 121 30 339 0 460 -93 366 -365 644 -721 736 -94 25 -305 40
-372 28z"/>
</g>
</svg>
